<?xml version="1.0" encoding="UTF-8" standalone="no"?>
<!-- Created with Inkscape (http://www.inkscape.org/) -->
<svg
   xmlns:dc="http://purl.org/dc/elements/1.1/"
   xmlns:cc="http://creativecommons.org/ns#"
   xmlns:rdf="http://www.w3.org/1999/02/22-rdf-syntax-ns#"
   xmlns:svg="http://www.w3.org/2000/svg"
   xmlns="http://www.w3.org/2000/svg"
   xmlns:sodipodi="http://sodipodi.sourceforge.net/DTD/sodipodi-0.dtd"
   xmlns:inkscape="http://www.inkscape.org/namespaces/inkscape"
   width="744.09448819"
   height="1052.3622047"
   id="svg2"
   sodipodi:version="0.32"
   inkscape:version="0.46"
   sodipodi:docname="drawing.svg"
   inkscape:output_extension="org.inkscape.output.svg.inkscape">
  <defs
     id="defs4">
    <inkscape:perspective
       sodipodi:type="inkscape:persp3d"
       inkscape:vp_x="0 : 526.18109 : 1"
       inkscape:vp_y="0 : 1000 : 0"
       inkscape:vp_z="744.09448 : 526.18109 : 1"
       inkscape:persp3d-origin="372.04724 : 350.78739 : 1"
       id="perspective10" />
  </defs>
  <sodipodi:namedview
     id="base"
     pagecolor="#ffffff"
     bordercolor="#666666"
     borderopacity="1.0"
     gridtolerance="10000"
     guidetolerance="10"
     objecttolerance="10"
     inkscape:pageopacity="0.0"
     inkscape:pageshadow="2"
     inkscape:zoom="0.35"
     inkscape:cx="375"
     inkscape:cy="520"
     inkscape:document-units="px"
     inkscape:current-layer="layer1"
     showgrid="false"
     inkscape:window-width="641"
     inkscape:window-height="719"
     inkscape:window-x="-4"
     inkscape:window-y="25" />
  <metadata
     id="metadata7">
    <rdf:RDF>
      <cc:Work
         rdf:about="">
        <dc:format>image/svg+xml</dc:format>
        <dc:type
           rdf:resource="http://purl.org/dc/dcmitype/StillImage" />
      </cc:Work>
    </rdf:RDF>
  </metadata>
  <g
     inkscape:label="Layer 1"
     inkscape:groupmode="layer"
     id="layer1">
    <path
       style="fill:#000000;fill-opacity:1;fill-rule:nonzero;stroke:none;stroke-width:1px;stroke-linecap:butt;stroke-linejoin:miter;stroke-opacity:1"
       id="path2389"
       d="M 233.24495,173.39987 C 226.27121,173.78954 219.19133,175.29647 212.37709,176.93829 C 201.79701,179.71011 191.25355,182.90713 181.23364,187.32205 C 176.1156,189.59016 170.9415,191.7433 166.04688,194.47798 C 164.5982,195.28738 160.33488,197.85862 161.77854,197.04029 C 192.08041,179.8638 202.95529,172.74929 189.2415,181.60758 C 184.25096,184.80384 179.68381,188.43908 175.94014,193.03781 C 171.65046,197.84228 170.99686,204.40945 169.57509,210.44279 C 168.12404,216.25183 167.57113,222.20666 167.27121,228.16854 C 167.32579,237.10441 169.43329,245.71748 172.21531,254.14942 C 176.97972,266.39961 181.87,278.62501 187.51674,290.49116 C 196.75083,308.32462 208.98601,324.3386 221.45891,339.991 C 229.05734,350.28873 238.44438,358.89617 247.40817,367.9237 C 258.62881,377.78378 271.69899,384.78726 285.85135,389.3379 C 293.26369,391.32794 299.41647,392.4455 306.89815,390.63647 C 319.54888,380.77257 306.22751,391.38684 278.60815,405.88752 C 277.09546,406.68171 281.35065,403.83822 282.60148,402.67444 C 287.7603,397.87461 291.59749,392.16715 295.55443,386.39524 C 304.71886,373.2698 310.02185,358.18167 315.22087,343.19433 C 320.4817,328.03004 323.90723,312.35114 327.65535,296.77032 C 330.09678,286.14589 332.55742,275.53736 333.17678,264.63245 C 333.91182,256.50205 331.43737,249.03547 327.55284,242.00781 C 323.74521,235.43472 318.90097,229.49997 313.9283,223.77449 C 308.60844,218.4888 303.3117,213.216 297.75937,208.16678 C 292.82685,204.06391 287.8028,200.02475 282.66229,196.17992 C 278.38458,194.07185 275.01989,190.65483 271.0228,188.13038 C 266.14193,184.46246 260.79919,181.58192 255.41465,178.74263 C 254.63901,178.42776 253.83874,178.16782 253.08773,177.79803 C 249.12269,175.84565 252.55056,177.11335 248.79828,175.45642 C 246.69591,174.52806 244.55821,174.104 242.46576,173.12316 C 237.8357,171.64903 233.55684,169.49829 229.25114,167.28642 L 264.21871,144.35423 C 268.4463,146.57017 272.9108,148.11043 277.33494,149.87765 C 281.8444,151.58447 286.13364,153.61109 290.33556,155.9891 C 295.64768,159.10801 300.97786,162.17512 306.09311,165.61505 C 310.13347,168.3021 313.98013,171.26108 318.01088,173.96494 C 322.94823,178.13143 327.91552,182.25906 332.8526,186.42486 C 338.52004,191.54902 343.77171,197.11436 349.17671,202.51266 C 354.34561,208.46036 359.50518,214.54719 363.07822,221.6229 C 367.17016,229.2977 370.83819,237.3198 369.86048,246.24761 C 368.99346,257.66748 366.28938,268.6168 363.36694,279.67595 C 359.2372,295.22073 355.78493,310.96 351.24284,326.3762 C 345.68753,341.38609 340.46363,356.7865 331.99865,370.44779 C 328.46774,375.90529 324.6515,382.62849 320.32369,387.46915 C 319.1961,388.73035 317.88406,389.85057 316.45063,390.74909 C 279.66047,413.81041 291.54536,409.23874 273.51056,415.71055 C 266.24436,416.30705 259.09239,414.43583 252.31071,411.93727 C 238.2993,406.06172 225.49934,397.95994 213.24952,389.00641 C 203.48313,380.45865 195.23598,370.6618 188.02186,359.85135 C 176.24623,343.41603 163.55324,327.54875 153.52047,309.95084 C 146.77753,298.37178 141.58716,286.18666 137.03459,273.58901 C 133.83934,264.89667 130.6923,256.21936 130.11273,246.89483 C 130.35227,240.68103 130.79147,234.45735 132.23385,228.38705 C 133.76096,221.98141 134.49742,215.19745 137.48764,209.2875 C 142.83703,203.48736 135.47248,211.6502 140.89676,204.99492 C 142.93397,202.49538 145.37918,200.75774 147.93708,198.8665 C 148.97819,198.09673 149.97514,197.26898 150.99417,196.47022 C 170.95128,184.06061 190.85504,171.20487 212.7451,162.47317 C 223.14895,158.40142 233.7249,154.64015 244.68094,152.34119 C 252.23073,150.70764 259.81327,148.77065 267.56161,148.46735 L 233.24495,173.39987 z" />
    <path
       style="fill:#000000;fill-opacity:1;fill-rule:nonzero;stroke:none;stroke-width:1px;stroke-linecap:butt;stroke-linejoin:miter;stroke-opacity:1"
       id="path2391"
       d="M 290.20634,319.1004 C 294.01475,323.81546 298.09506,328.28 301.98763,332.9291 C 306.38912,337.85363 310.27559,343.23002 314.88498,347.96235 C 318.77658,352.27018 322.78455,356.46987 326.88208,360.59574 C 333.82737,367.30367 340.85331,373.92691 347.78939,380.64455 C 355.93013,389.28144 363.79529,398.1541 372.42616,406.30946 C 378.73186,412.08126 385.06195,417.79119 390.67414,424.24902 C 393.98467,428.40584 398.06688,431.83283 401.73846,435.6465 L 366.10637,457.33801 C 362.49863,453.42317 358.70873,449.67048 355.33467,445.54437 C 349.88542,439.15423 343.74663,433.47432 337.78606,427.56612 C 329.52145,419.03433 322.02757,409.73766 312.90463,402.06623 C 306.08854,395.28275 299.26752,388.49544 292.10665,382.07275 C 287.56047,378.13951 282.78042,374.52319 279.24508,369.57616 C 274.92251,364.53738 271.07136,359.10886 266.54528,354.23813 C 262.65373,349.6617 258.73034,345.04062 254.01785,341.27673 L 290.20634,319.1004 z" />
    <path
       style="fill:#000000;fill-opacity:1;fill-rule:nonzero;stroke:none;stroke-width:1px;stroke-linecap:butt;stroke-linejoin:miter;stroke-opacity:1"
       id="path2393"
       d="M 498.89724,140.90171 C 498.55215,147.15456 498.36302,153.42176 498.19677,159.68312 C 498.23958,168.52121 498.25757,177.35623 498.25408,186.19372 C 498.16353,195.67347 498.05677,205.09773 498.83296,214.5525 C 499.65236,225.54704 501.19816,236.46337 502.29283,247.43177 C 503.8346,263.21583 504.2333,279.07381 505.50227,294.88483 C 507.4144,313.25164 510.12216,331.54012 513.18162,349.7494 C 515.71679,367.94081 519.35052,385.94629 523.79374,403.76116 C 527.07751,416.79101 531.47915,429.42685 537.95221,441.20989 C 541.83876,447.78374 546.24253,454.02157 552.14266,458.92503 C 556.72936,463.14998 562.56403,465.26776 567.978,468.08843 C 571.58548,470.16705 574.93143,470.72994 578.94331,470.05245 L 545.11746,494.85949 C 540.82385,494.59089 536.88898,493.04746 533.14908,490.94252 C 527.45048,488.03737 521.69793,485.16541 516.94116,480.78319 C 510.99969,475.18324 506.48919,468.61604 502.69213,461.39083 C 496.37588,448.96895 492.77082,435.71305 489.73142,422.14113 C 485.59071,404.24274 480.98139,386.39506 478.25843,368.2209 C 475.66964,349.7621 473.74573,331.21445 471.39906,312.72426 C 469.30745,297.24571 468.38612,281.62068 466.49386,266.11523 C 465.43912,255.16082 463.60952,244.30892 462.79409,233.33133 C 461.83733,223.83808 461.51744,214.34042 461.74592,204.79556 C 461.74242,195.93863 461.76094,187.08409 461.80323,178.22655 C 461.63886,172.20323 461.45279,166.1729 461.10276,160.15895 L 498.89724,140.90171 z" />
    <path
       style="fill:#000000;fill-opacity:1;fill-rule:nonzero;stroke:none;stroke-width:1px;stroke-linecap:butt;stroke-linejoin:miter;stroke-opacity:1"
       id="path2395"
       d="M 395.3632,288.37117 C 404.28012,280.42735 412.58022,271.85256 420.75437,263.15869 C 430.72776,252.60492 441.31691,242.93594 453.67331,235.28737 C 476.70583,221.13385 500.07049,207.7318 525.69104,199.14638 C 533.51978,195.39378 541.9696,193.29871 550.34162,191.15991 C 558.17635,189.30993 566.19533,189.26734 574.15942,188.39288 C 577.09918,188.07009 585.79716,186.69438 588.90128,186.21434 L 556.96741,210.10105 C 543.80455,211.7426 530.52761,212.82136 517.65794,216.21519 C 509.54729,218.41136 501.5123,220.7852 493.73467,224.00328 C 489.90023,225.32525 487.09747,226.23241 483.33349,227.77004 C 470.29531,233.09627 436.44402,251.17509 490.48035,221.1153 C 478.092,228.07407 467.45175,237.24926 457.85501,247.72705 C 449.90367,255.66725 442.21803,263.89342 434.57529,272.12899 L 395.3632,288.37117 z" />
  </g>
</svg>
